<?xml version="1.0" standalone="no"?>
<!DOCTYPE svg PUBLIC "-//W3C//DTD SVG 20010904//EN"
 "http://www.w3.org/TR/2001/REC-SVG-20010904/DTD/svg10.dtd">
<svg version="1.0" xmlns="http://www.w3.org/2000/svg"
 width="96.000000pt" height="96.000000pt" viewBox="0 0 96.000000 96.000000"
 preserveAspectRatio="xMidYMid meet">
  <metadata>
Created by potrace 1.14, written by Peter Selinger 2001-2017
</metadata>
  <g transform="translate(0.000000,96.000000) scale(0.100000,-0.100000)"
fill="#000000" stroke="none">
    <path d="M134 930 c-62 -31 -101 -76 -122 -139 -8 -23 -12 -126 -12 -310 1
-308 6 -340 67 -404 67 -71 72 -72 418 -72 l310 0 45 28 c53 34 93 86 109 142
7 25 11 142 11 310 -1 301 -6 335 -67 398 -66 70 -75 72 -404 74 l-296 3 -59
-30z"/>
  </g>
</svg>
